<?xml version="1.0" encoding="utf-8"?>
<!-- Generator: Adobe Illustrator 26.0.2, SVG Export Plug-In . SVG Version: 6.00 Build 0)  -->
<svg version="1.1" id="Ebene_1" xmlns="http://www.w3.org/2000/svg" xmlns:xlink="http://www.w3.org/1999/xlink" x="0px" y="0px"
	 viewBox="0 0 336.91 259.49" style="enable-background:new 0 0 336.91 259.49;" xml:space="preserve">
<style type="text/css">
	.st0{fill:none;stroke:#BE9B52;stroke-miterlimit:10;}
	.st1{fill:none;stroke:#BE9B52;stroke-width:1.0063;stroke-miterlimit:10;}
	.st2{fill:#CB9700;}
	.st3{fill:#BE9B52;}
	.st4{fill:none;stroke:#87888E;stroke-miterlimit:10;}
	.st5{fill:none;stroke:#87888E;stroke-width:1.0063;stroke-miterlimit:10;}
	.st6{fill:#87888E;}
	.st7{fill:none;stroke:#FFFFFF;stroke-miterlimit:10;}
	.st8{fill:none;stroke:#FFFFFF;stroke-width:1.0063;stroke-miterlimit:10;}
	.st9{fill:#FFFFFF;}
	.st10{fill:none;stroke:#000000;stroke-miterlimit:10;}
	.st11{fill:none;stroke:#000000;stroke-width:1.0063;stroke-miterlimit:10;}
	.st12{fill:#000001;}
	.st13{fill:none;stroke:#000001;stroke-miterlimit:10;}
</style>
<path class="st7" d="M264.06,131.71c-3.01,53.43-43.19,95.73-92.32,95.73c-31.64,0-59.57-17.55-76.25-44.31"/>
<path class="st7" d="M79.4,131.28c-0.1-1.98-0.16-3.98-0.16-6c0-56.43,41.41-102.17,92.5-102.17c43.36,0,79.75,32.95,89.77,77.42"/>
<path class="st8" d="M226.93,143.04c-7.01,25.5-28.6,44.07-54.15,44.07c-14.58,0-27.88-6.05-37.91-16"/>
<path class="st8" d="M116.24,125.11c0-34.24,25.32-62,56.54-62c25.28,0,46.69,18.19,53.92,43.29"/>
<polyline class="st8" points="180.52,114.19 226.71,106.4 261.51,100.53 319.32,90.78 "/>
<polyline class="st8" points="25.82,140.28 79.4,131.24 116.23,125.03 169.97,115.97 "/>
<polyline class="st8" points="179.31,157.56 226.93,143.04 264.06,131.71 319.57,114.78 "/>
<polyline class="st8" points="31.07,202.78 95.49,183.13 134.88,171.12 176.44,158.44 "/>
<g>
	<path class="st9" d="M104.41,47.6c-5.95,4.09-15.15,12.48-18.55,15.98l-2.28,2.35l3.2-0.67c3.9-0.82,7.74-1.05,10.18-1.13
		c-2.91,4.2-5.32,8.84-6.19,10.56c-2.71-0.44-6.55-0.67-11.44-0.67c-2.57,0-4.94,0.06-6.66,0.13c1.75-1.43,4.61-3.4,7.09-4.89
		l1.98-1.19l-2.22-0.63c-7.04-2.01-13.69-3.02-19.78-3.02c-8.8,0-15.55,2.11-20.93,4.51C53.48,58.59,75.13,48.51,104.41,47.6
		 M108.2,46.53c-6.25,0.12-44.63-0.75-78.38,28.12c6.7-3.44,15.33-9.23,29.91-9.23c5.56,0,11.99,0.84,19.5,2.98
		c-2.92,1.75-8.29,5.38-9.04,6.88c0.84-0.06,4.7-0.26,9.13-0.26c4.18,0,8.86,0.17,12,0.78c0,0,3.52-7.27,7.61-12.72
		c-1.72,0.02-6.99,0.07-12.36,1.19C90.82,59.9,103.45,48.53,108.2,46.53L108.2,46.53z"/>
</g>
<g>
	<path class="st9" d="M101.94,47.26c0.99,0,1.95,0.02,2.87,0.05c-5.98,4-15.57,12.81-18.95,16.26l-2.31,2.35l3.22-0.67
		c3.85-0.8,7.73-1.04,10.17-1.13c-2.92,4.19-5.36,8.91-6.2,10.61c-1.43-0.13-3.41-0.2-5.88-0.2c-4.88,0-10.61,0.25-14.06,0.43
		c2.23-1.59,5.77-3.82,8.96-5.71l2.24-1.33l-2.56-0.51c-7.66-1.53-14.1-2.27-19.7-2.27c-12.5,0-19.5,3.66-28.36,8.29
		c-0.1,0.05-0.21,0.11-0.31,0.16C60.28,49.96,89.99,47.26,101.94,47.26L101.94,47.26 M101.94,46.26c-16.25,0-48.09,4.71-77.7,31.9
		c12.96-6.18,19.93-12.02,35.49-12.02c5.31,0,11.62,0.68,19.51,2.26c-2.9,1.72-10.23,6.2-11.4,7.75c1.18-0.09,10.06-0.61,17.02-0.61
		c2.59,0,4.91,0.07,6.47,0.26c0,0,3.54-7.36,7.61-12.72c-1.71,0.02-7.03,0.09-12.36,1.19c4.22-4.3,16.91-15.79,21.62-17.75
		C106.51,46.37,104.41,46.27,101.94,46.26L101.94,46.26z"/>
</g>
<g>
	<path class="st9" d="M242.36,47.21c14.44,0,41.9,3.58,69.9,26.42c-0.13-0.07-0.25-0.13-0.38-0.2c-8.86-4.63-15.86-8.29-28.36-8.29
		c-5.6,0-12.04,0.74-19.7,2.27l-2.56,0.51l2.24,1.33c3.19,1.89,6.72,4.11,8.96,5.71c-3.4-0.18-8.99-0.43-13.79-0.43
		c-2.44,0-4.39,0.07-5.82,0.2c-2.94-6.11-3.3-6.82-6.16-10.6c2.36,0.09,5.96,0.33,9.78,1.12l3.22,0.67l-2.31-2.35
		c-3.39-3.45-13-12.28-18.98-16.28C239.71,47.24,241.02,47.21,242.36,47.21 M242.36,46.21c-2.77,0-5.22,0.13-7.3,0.32
		c4.72,1.96,17.4,13.45,21.63,17.75c-5.34-1.1-10.33-1.17-12.03-1.19c4.12,5.43,4.02,5.26,7.61,12.72c1.56-0.19,3.86-0.26,6.42-0.26
		c6.86,0,15.56,0.52,16.74,0.61c-1.17-1.55-8.51-6.03-11.4-7.75c7.89-1.58,14.2-2.26,19.51-2.26c15.57,0,22.53,5.84,35.49,12.02
		C289.79,51.33,259.81,46.21,242.36,46.21L242.36,46.21z"/>
</g>
<g>
	<path class="st9" d="M239.13,47.58c30.03,0.74,51.76,11.07,66.24,21.62c-5.47-2.51-12.39-4.78-21.51-4.78
		c-6.08,0-12.74,1.02-19.78,3.02l-2.22,0.63l1.98,1.19c2.45,1.47,5.27,3.4,7.02,4.83c-3.01-0.19-5.82-0.29-8.36-0.29
		c-4.21,0-7.47,0.28-9.7,0.82c-0.89-1.77-3.29-6.35-6.15-10.49c2.34,0.08,5.99,0.32,9.84,1.13l3.2,0.67l-2.28-2.35
		C254.01,60.08,245,51.66,239.13,47.58 M235.39,46.53c4.75,2,17.04,13.38,21.29,17.75c-5.38-1.12-10.31-1.17-12.03-1.19
		c4.09,5.45,7.61,12.72,7.61,12.72c2.46-0.78,6.4-1.01,10.23-1.01c5.09,0,9.97,0.41,10.9,0.48c-0.75-1.5-6.12-5.12-9.04-6.88
		c7.51-2.14,13.94-2.98,19.5-2.98c14.58,0,23.22,5.8,29.91,9.23C280.48,45.33,241.64,46.65,235.39,46.53L235.39,46.53z"/>
</g>
<g>
	<path class="st9" d="M115.55,101.74c-2.77,6.28-8.37,6.75-13.75,4.37c-7.99-3.53-14.94-11.95-12.37-17.76
		c2.57-5.82,13.47-6.35,21.46-2.82c5.38,2.38,8.8,6.82,6.03,13.11L115.55,101.74z M107.98,90.26c-6.87-3.04-12.6-1.77-13.52,0.31
		c-0.92,2.08,2,7.16,8.87,10.2c3.64,1.61,5.9,0.27,7.36-3.03C112.15,94.45,111.62,91.87,107.98,90.26z"/>
	<path class="st9" d="M111.15,55.82c0.21-0.26,0.58-0.93,1-0.58c3.92,3.21,4.36,11.04,4.89,11.47c0.58,0.47,8.9-1.15,16.61,5.16
		c0.71,0.58,0.1,1-0.37,1.58l-2.63,3.21c-0.54,0.66-1.24-0.05-1.53-0.28c-6.08-4.76-10.79-4.75-11.16-4.3
		c-0.52,0.63-0.42,4.49,1.08,5.72c1.05,0.86,6.47,3.8,6.68,3.98c0.32,0.26,0.27,0.58,0.04,0.87l-2.63,3.21
		c-0.54,0.66-0.69,1.86-10.55-6.22c-13-10.64-11.4-11.62-11.04-12.07l2.18-2.66c0.28-0.34,0.65-0.96,1.15-0.55
		c0.03,0.02,2.73,4.39,6.52,7.49c0.29,0.24,1.59,1.44,2.02,0.91c0.47-0.58-0.86-8.18-4.25-13.06c-0.43-0.66-0.55-0.72-0.08-1.34
		L111.15,55.82z"/>
	<path class="st9" d="M142.2,66.73c-0.54,0.35-1.06,2.3-6.42-5.97c-4.12-6.36-5.49-11.23-6.17-12.28c-0.55-0.86-0.74-1.46-1.46-1
		c-2.03,1.31-3.47,6.9-3.95,7.22c-0.26,0.17-0.33,0.37-0.84-0.43c-0.57-0.88-2.09-4.92-2.18-6c-0.07-0.73,3.12-4.25,6.97-6.74
		c4.59-2.98,9.47-4.39,10.34-3.05c0.81,1.26,1.17,4.87,0.86,5.08c-0.48,0.31-3.19-1.3-5.24,0.03c-1.74,1.13,1.5,6.76,3.2,9.39
		c4.75,7.33,8.65,9.91,8.98,10.43c0.41,0.63-0.71,1.15-1.08,1.39L142.2,66.73z"/>
	<path class="st9" d="M166.25,57.22c-0.3,0.06-1.24,0.37-1.35-0.13c-0.2-0.93,1.65-4.8,0.84-8.59c-0.32-1.5-1.87-1.76-3.37-1.44
		c-3.03,0.65-7.73,2.21-6.92,6c0.56,2.63,3.33,4.99,3.43,5.49c0.04,0.2-0.15,0.28-0.58,0.37l-4.75,1.01
		c-1.7,0.36-2.8-2.53-3.72-6.85c-3.04-14.23,5.43-22.96,6.89-23.27c1.1-0.23,10.69,2.69,13.98,18.12c1.89,8.88,0.27,8.29-0.72,8.5
		L166.25,57.22z M154.35,44.33c0.09,0.4,0.37,0.58,0.77,0.5c0.6-0.13,3.64-1.68,6.57-2.3c1.16-0.25,1.66-0.53,1.46-1.46
		c-0.44-2.06-3.82-5.86-5.09-5.59C156.26,35.85,153.83,41.9,154.35,44.33z"/>
	<path class="st9" d="M197.91,32.48c0.76,0.17,1.33,3.08-0.03,9.16c-2.56,11.45-12.59,17.85-14.59,17.4
		c-0.66-0.15-8.88-7.49-5.51-22.59c1.77-7.9,3-7.8,3.59-7.67l3.78,0.85c0.4,0.09,1.58,0.25,1.44,0.88c-0.19,0.86-2.4,2.46-3.96,9.46
		c-1.33,5.94,1.47,11.69,2.26,11.86c1.73,0.39,6.43-3.68,7.76-9.62c1.56-7-0.18-9.48,0.01-10.35c0.14-0.63,0.98-0.34,1.38-0.25
		L197.91,32.48z"/>
	<path class="st9" d="M206.99,69.73c-0.25-0.18-1.12-0.66-0.82-1.08c0.55-0.78,4.64-2.05,6.87-5.23c0.88-1.25,0.02-2.56-1.24-3.44
		c-2.53-1.78-6.88-4.17-9.11-1c-1.54,2.2-1.4,5.83-1.69,6.25c-0.12,0.17-0.3,0.08-0.67-0.18l-3.98-2.79c-1.42-1-0.05-3.77,2.49-7.39
		c8.37-11.91,20.52-11.64,21.74-10.78c0.92,0.64,5.3,9.67-3.77,22.57c-5.22,7.43-5.89,5.84-6.72,5.25L206.99,69.73z M208.35,52.24
		c-0.23,0.33-0.18,0.67,0.16,0.9c0.5,0.35,3.71,1.52,6.16,3.25c0.97,0.68,1.52,0.86,2.06,0.08c1.21-1.72,1.69-6.79,0.64-7.53
		C215.87,47.88,209.78,50.21,208.35,52.24z"/>
	<path class="st9" d="M228.09,80.45c-0.3-0.46-0.99-1.22-0.34-1.65c0.29-0.18,3.45-1.55,4.17-0.44l2.74,4.22
		c0.3,0.46,0.99,1.22,0.34,1.65c-0.29,0.18-3.45,1.55-4.17,0.44L228.09,80.45z"/>
</g>
<circle class="st9" cx="215.26" cy="40.5" r="2.5"/>
<circle class="st9" cx="225.93" cy="49.03" r="2.5"/>
<g>
	<path class="st9" d="M135.36,181.57c-1.15-1.06-3.19-1.82-4.49-0.41c-1.61,1.75,0.04,4.53,0.89,6.16c3.27,6.17,2,9.53-0.12,11.83
		c-2.6,2.81-7.71,4.51-12.58,0.02c-3.27-3.02-4.89-7.93-1.33-11.79c1.9-2.06,4.2-2.19,4.43-1.97c0.39,0.36-4.54,4.92,0.41,9.5
		c1.75,1.62,4.01,2.22,5.4,0.72c1.63-1.77,0.23-4.41-0.7-6.08c-3.53-6.31-1.86-9.22,0.04-11.28c1.88-2.04,6.4-4.29,11.08,0.03
		c3.34,3.09,3.99,7.15,3.34,7.85c-0.63,0.68-3.86,1.78-4.51,1.18C136.64,186.8,137.76,183.78,135.36,181.57z"/>
	<path class="st9" d="M159.77,191.8c0.57,0.26,1.46,1.26-3.53,12.04c-4.07,8.81-9.09,12.92-15.19,10.1
		c-5.36-2.48-6.62-8.33-2.48-17.29c4.43-9.58,6.67-11.57,7.04-11.4l3.96,1.83c0.29,0.13,0.63,0.29,0.45,0.68
		c-0.32,0.69-3.21,3.21-6.4,10.09c-3.15,6.8-1.78,9.98-0.1,10.75c1.42,0.66,4.68,1.69,8.48-6.52c3.6-7.79,3.47-11.16,3.72-11.7
		c0.22-0.48,1.01-0.01,1.26,0.11L159.77,191.8z"/>
	<path class="st9" d="M161.82,220.53c-0.78-0.03-1.75,0.56-1.26-11.81c0.64-16.29,2.25-15.63,2.78-15.61l2.88,0.11
		c1.22,0.05,1.66,0.06,3.11,2.33c2.78,4.37,2.87,6.78,3.5,6.81c0.47,0.02,0.75-2.38,4.24-6.51c1.84-2.17,2.31-2.12,3.54-2.08
		l2.45,0.1c0.53,0.02,2.19-0.51,1.55,15.78c-0.49,12.37-1.4,11.7-2.19,11.67l-4.01-0.16c-0.38-0.01-1.13,0.06-1.11-0.54
		c0.02-0.46,2.04-6.33,2.38-14.93c0.03-0.69,0.28-4.75-0.75-4.79c-0.91-0.04-2.23,3.18-2.57,3.96c-2.9,6.66-1.96,9.8-4.06,9.72
		c-2.63-0.1-1.48-3.16-4-10.03c-0.29-0.74-1.19-4.11-2.16-4.15c-1.03-0.04-1.16,4.02-1.19,4.71c-0.34,8.61,1.4,14.62,1.39,15.08
		c-0.02,0.59-0.77,0.46-1.15,0.45L161.82,220.53z"/>
	<path class="st9" d="M196.22,189.43c4.86-1.68,7.16,1.68,7.8,3.52c2.9,8.36-8.28,13.59-6.92,17.52c0.91,2.62,3.26,6.07,3.33,6.25
		c0.13,0.38-0.58,0.52-0.79,0.59l-3.95,1.37c-0.74,0.26-1.43,1.16-5.48-10.54c-5.34-15.41-3.6-15.38-3.1-15.55L196.22,189.43z
		 M199.56,195.61c-0.75-2.15-2.77-2.25-4.55-1.64c-2.14,0.74-3.77,1.69-1.25,8.85c0.26,0.75,0.56,1.41,1.42,1.12
		C196.71,203.4,200.34,197.85,199.56,195.61z"/>
	<path class="st9" d="M214.6,177.48c0.3-0.23,1.14-0.99,1.54-0.47c0.16,0.21,1.36,5.11,1.03,5.35c-0.42,0.32-2.11-0.34-4.56,1.52
		c-1.72,1.31-2.73,3.77-0.81,6.3c1.2,1.58,1.65,2.02,2.38,1.47c1.62-1.23,0.86-2.56,4.16-5.07c0.27-0.21,0.85-0.65,1.19-0.2
		c0.1,0.13,2.24,4.97,1.82,5.29c-0.25,0.19-1.21,0.33-2.18,1.08c-2.2,1.67-2.28,3.85-0.64,6c1.74,2.29,5.53,5.2,5.73,5.51
		c0.26,0.3-0.42,0.69-0.65,0.86l-2.95,2.24c-0.62,0.48-1,1.54-8.49-8.31c-9.87-12.98-8.21-13.5-7.78-13.82L214.6,177.48z"/>
	<path class="st9" d="M237.91,192.29c-0.95,1.37-1.57,0.28-7.02-3.62c-3.54-2.66-14.69-13.19-14.14-13.92l7.42-9.89
		c0.23-0.3,0.83-1.26,1.35-0.87c0.21,0.16,2.7,4.54,2.45,4.87c-0.32,0.43-2.13,0.25-3.97,2.71c-1.3,1.73-1.59,4.38,0.94,6.28
		c0.55,0.42,1.58,1.03,2.11,0.33c0.6-0.8,0.7-3.52,2.28-5.62c0.23-0.3,0.95-1.05,1.4-0.71c0.03,0.02,3.27,4.66,3.04,4.96
		c-0.19,0.25-1.43,0.81-2.17,1.79c-0.96,1.28-1.38,3.87,1.23,5.83c2.11,1.59,4.43,1.68,6.02-0.43c1.87-2.49,1.27-5.33,1.73-5.93
		c0.28-0.38,6,1.29,6.27,1.49c0.5,0.38-0.08,0.92-0.3,1.23L237.91,192.29z"/>
	<path class="st9" d="M229.28,152.52c1.96-5.5,5.63-5.75,8.27-4.81c4.97,1.78,4.91,6.75,5.78,7.07c0.87,0.31,6.84-3.55,14.18-0.93
		c0.34,0.12,0.36,0.26,0.14,0.88l-1.19,3.34c-0.19,0.53-0.42,1.48-0.92,1.3c-3.51-1.25-10.67-1.15-11.28,0.57
		c-0.32,0.89,0.19,3.5,1.93,4.12c2.36,0.84,7.01,1.27,7.23,1.35c0.53,0.19,0.11,0.87,0,1.17l-1.23,3.43
		c-0.26,0.74,0.01,1.84-11.65-2.33c-15.35-5.49-14.25-6.82-14.07-7.33L229.28,152.52z M236.37,152.69c-1.96-0.7-3.3,0.79-3.87,2.38
		c-0.96,2.69-0.36,4.24,5.03,6.13c0.65,0.23,1.91,0.65,2.22-0.24C240.12,159.96,239.23,153.71,236.37,152.69z"/>
</g>
<g>
	<path class="st7" d="M187.08,105.78c-2.83,1.89-5.85,1.65-7.08,2.03c-0.4,6.81,2.02,10.31,3.43,14.03c0.96,2.51,3.3,4.74,2.9,10.65
		c-0.14,2.09-0.63,4.64-1.64,7.83c-0.35,1.12-0.77,2.31-1.26,3.59c-5.85,15.26-4.64,18.15-4.24,28.67
		c-5.42-13.32-1.01-21.66-1.01-21.66s2.58-5.14,3.21-11.22c0.25-2.43,0.19-5.02-0.47-7.49c-0.65-2.42-1.87-4.72-3.95-6.66
		c-9.49-8.87-8.07-15.88-8.07-15.88s-4.04-0.28-5.92-2.06s-3.83-3.78-4.51-5.02c-1.01,0.21-2.35,0.69-2.35,0.69
		s-1.01-1.86-1.35-2.48c-0.4,0.07-1.41,0.76-1.41,0.76s2.02-1.65,2.96-2.41"/>
	<path class="st7" d="M195.27,94.19c-0.61-0.48-1.08-0.34-2.29-0.07c0.61-0.14,0.67-0.21,1.21-0.28c0.07,1.93-0.4,3.85-0.54,4.68
		c-0.27,0.34-0.94,0.48-1.88,0.34c-0.74,2.33-1.72,4.02-2.8,5.25"/>
	<path class="st7" d="M164.17,108.42c0,0-5.76,5.92-9.66,7.36c-2.62-1.72-28.32-21.59-28.32-21.59"/>
	<path class="st7" d="M136.65,102.26c0,0-0.1-2.5-1.58-3.87c-1.48-1.38-5.25-4.19-5.25-4.19"/>
	<polyline class="st7" points="136.65,102.84 130.83,103.4 126.66,98.59 	"/>
	<path class="st7" d="M124.91,99l3.57,6.33l8.93-2.49c-0.76-1.53-0.52-5.69-0.45-6.65c-2.09-0.55-6.39-3.51-6.59-3.51"/>
	<path class="st7" d="M162.22,106.86c0,0-8.45,3.07-10.6-2.98c-0.81-2.48,2.62-6.26,3.77-6.67c-0.34-1.03-0.54-3.23-1.68-4.54"/>
	<path class="st7" d="M153.7,92.68c0,0,0-1.51-1.21-3.16c-1.08-0.76-14.4-9.01-17.56-10.04"/>
	<path class="st7" d="M181.55,99.83c0,0,0.27,0.89,0.4,1.93c3.23-2.54,5.25-4.26,8.54-10.93c3.3-6.67-0.81-14.16-3.63-18.63
		c-2.83-4.47-14.13-10.66-24.65-2.96s-9.73,20.28-9.73,20.28"/>
	<path class="st9" d="M163.48,68.38c0,0,2.13,2.16,3.07,2.57c-1.61,1.65-4.27,3.44-5.7,6.6c-2.1,0.14-5.7,0.04-5.94,0.59
		C154.67,78.68,157.89,70.74,163.48,68.38z"/>
	<path class="st7" d="M181.82,100.72c-0.35-1.98,1.06-2.41,3.18-3.59s1.97-2.84,1.97-3.51c0.4-2.22,0.61-7.27,0.61-7.27
		s0.15-0.41,0.35-0.83c-0.05-1.29-3.83-6.05-3.83-6.05l-14.13,7.6l-8.17-5.83c0,0-4.49,3.27-4.84,4.83
		c0.25,1.93,0.3,10.38,0.3,10.38s4.49,2.73,4.97,4.54c-0.12,1.55-0.58,3.2-0.58,3.2s-4.84-4.16-6.26-6.98"/>
	<path class="st9" d="M157.23,94.76c0,0,10.56,3.61,16.01,2.99c5.45-0.62,12.66-2.22,13.72-3.56c0.13-1.4,0.65-5.93,0.61-7.84
		c0.35-0.83,0.35-0.83,0.35-0.83s-2.77-5.29-3.83-6.05c-1.08,0.58-14.13,7.6-14.13,7.6l-8.17-5.83c0,0-4.44,3.37-4.84,4.83
		C157.03,87.13,157.23,94.76,157.23,94.76z"/>
	<path class="st7" d="M159.85,95.58c0,0,0.96,1.36,1.39,2.9c0.42,1.54,1.92,4.64,4.59,4.95s5.8-2.17,6.61-3.92
		c-0.15-0.77-0.34-2.01-0.34-2.01s0.19,1.65,1.14,2.78c0.96,1.13,8.16,3.27,10.16-4.48"/>
	<ellipse class="st9" cx="166.87" cy="99.54" rx="1.07" ry="1.1"/>
	<ellipse class="st9" cx="177.97" cy="98.92" rx="1.07" ry="1.1"/>
	<path class="st9" d="M176.39,160.96c0,0-0.01,1.4,3.82-7.05c-0.8,7.14-2.36-0.72-1.01,18.67
		C177.8,169.1,177.73,169.48,176.39,160.96z"/>
	<path class="st9" d="M181.05,128.12c0,0-0.21-1.36,0.98-3.47C182.4,125.27,182.2,127.54,181.05,128.12z"/>
	<path class="st7" d="M187.22,96.5c0,0,3.22-7.52,9.13-3.6c4.49,4.23-1.8,12.87-6.27,9.73"/>
	<path class="st7" d="M185.3,103.68c0,0,2.67-1.08,3.78-2.89"/>
	<path class="st7" d="M187.75,102.24l1.74,3.4l-1.56,1.13c0,0-1.16-2.16-1.59-3.6"/>
	<path class="st9" d="M181.42,75.68v0.67l4.92,0.67l-0.73-0.67c0,0,0.66-0.83-0.05-2.17c1.01-1.13,3.11-3.51,7.01-2.48
		s9.14,7.58,11.01,13.97c1.87,6.39,1.26,13.51-3.99,18s-10.09,1.96-10.09,1.96c-1.13,0.82-1.56,1.13-1.56,1.13s2.42,1.38,6.05,0.87
		c3.63-0.51,7.01-2.94,9.84-7.63s2.77-11.75-0.3-18.66c-3.08-6.91-9.43-13.05-15.04-10.98c-3.18,1.24-3.38,2.42-3.99,3.71
		c-0.66,0.21-1.16,0.36-1.72,1.65C182.17,75.73,181.42,75.68,181.42,75.68z"/>
	
		<ellipse transform="matrix(0.0858 -0.9963 0.9963 0.0858 59.891 222.7284)" class="st7" cx="151.31" cy="78.73" rx="3.11" ry="2.76"/>
	<path class="st7" d="M191.72,87.59c0,0,16.47-5.84,20.91-7.01"/>
	<path class="st9" d="M214.78,83.19c-0.47-0.07-19.68,4.78-23.63,6c-0.66,1.63-1.61,3.49-1.61,3.49s10.1-4.88,26.72-7.43
		C215.45,84.29,214.78,83.19,214.78,83.19z"/>
	<path class="st9" d="M154.2,93.95c-0.47-0.28-19.23-10-23.32-11.1c0.55-0.62,1.56-1.38,1.56-1.38s18.74,8.19,21.43,10.41
		C154.8,93.71,154.2,93.95,154.2,93.95z"/>
	<ellipse class="st9" cx="151.8" cy="79.01" rx="0.67" ry="0.97"/>
</g>
<path class="st7" d="M169.97,106.77c0,0,3.37-3.53,8-1.44"/>
<g>
	<path class="st9" d="M88.52,157.48c-7.75-0.21-1.52-5.61-1.52-5.61s6.48-5.2,4.72-9.75c-3.52-7.66-20.27-4.97-20.27-4.97
		s-30.73,5.38-33.73,5.87c-3,0.49-5.24,2.66-4.73,6.25c0.51,3.6,7.31,17.97,7.31,17.97s6.44,13.02,12.57,20.11
		c1.48,1.71,5.33,0.57,6.59,0.13c0.38-0.13,0.76-0.25,1.15-0.35c3.53-0.98,18.84-5.27,26.98-8.04c9.24-3.15,16.48-5.57,17.21-12.05
		C105.53,160.54,96.27,157.69,88.52,157.48z M54.77,158.79c-3.01-3.83-2.27-7.67,3.72-10.57c0,0,16.74-4.37,18.25-1.5
		c1.51,2.87-3,7.93-7.86,10.34S57.78,162.61,54.77,158.79z M78.83,175.5c-4,0.97-9.67,1.95-13.71,1c-4.04-0.95-4.07-8.62-2.82-9.11
		c1.25-0.48,13.23-6.87,13.23-6.87s13.51,2.47,14.02,6.55C90.06,171.14,82.82,174.53,78.83,175.5z"/>
	<path class="st9" d="M107.18,131.27l15.24-2.21c0,0-3.94,30.21,10.59,29.23c13.05-0.88,13.39-5.13,12.96-11.32
		c-0.44-6.47-5.56-17.49-7.32-20.37c3.25-0.73,11.24-1.72,11.24-1.72s8.98,17.95,5.34,27.98c-2.78,7.65-10.08,11.04-16.71,12.36
		c-7.66,1.52-20.74,3.67-27.02-7.35S107.18,131.27,107.18,131.27z"/>
	
		<ellipse transform="matrix(1 -3.231307e-03 3.231307e-03 1 -0.387 0.3828)" class="st9" cx="118.27" cy="119.96" rx="4.62" ry="3.24"/>
	
		<ellipse transform="matrix(1 -3.231307e-03 3.231307e-03 1 -0.3762 0.4476)" class="st9" cx="138.35" cy="116.66" rx="4.62" ry="3.24"/>
	<path class="st9" d="M181.02,132.61c-0.68,0.08-5.01-0.15-5.59-0.12c-4.25,0.25-4.18-4.86,0.56-7.68
		c4.74-2.81,9.83-0.19,11.17,0.76c1.34,0.96,2.33-0.01,2.33-0.01s1.91-2.64,2.91-3.53c1-0.88-0.01-1.76-0.01-1.76
		c-6.18-2.62-9.59-2.61-13.34-2.2c-4.72,0.52-16.57,4.37-15.62,13.16s11.94,7.72,16.76,8.1c0.07,0.01,0.34,0.04,0.71,0.09h0.51
		C181.42,139.44,181.58,133.61,181.02,132.61z"/>
	<path class="st9" d="M184.97,140.17c2.44,0.8,3.84,2.26,2.51,4.99c-0.95,1.94-3.16,3.07-5.57,3.68l-1.7,6
		c4.48-1.01,8.32-3.28,11.2-5.38c4.07-2.97,7.21-11.38,2.87-14.24c-1.8-1.18-4.77-1.89-7.88-2.3"/>
	<path class="st9" d="M176.85,155.39c-0.48,0.01-2.01,0-2.51-0.03c-7-0.38-10.68-4.44-10.27-6.84c0.41-2.4,3.48-5.69,4.4-4.33
		c0.92,1.36,1.52,4.65,5.77,5.18c1,0.12,2.52,0.17,4.19,0.04"/>
	<path class="st9" d="M217.57,111.69c-1.5,0.02-2.99,0.24-4.42,0.67c-3.11,0.95-8.14,3.1-9.59,7.32
		c-2.15,6.24,2.73,10.25,6.12,10.77c5.23,0.82,10.58-0.91,11.43,2.84c0.85,3.76-5.77,6.82-9,6.51c-3.23-0.31-6.15-0.62-7-5.81
		c-0.5-0.4-2.16,2.97-2.49,3.85s-1.57,5.04,2.86,6.71c4.42,1.66,16.66-0.93,19.06-6.46c2.4-5.52,2.39-9.72-0.04-10.95
		c-3.6-1.63-13.67-1-14.51-3.71c-0.84-2.72,0.98-6.88,7.23-6.42c2.25,0.23,2.59,0.55,3.17,1.19c0.59,0.64,2.59,1.11,4.24-1.81
		c1.66-2.92,0.07-4.6-2.93-4.67C220.2,111.67,218.7,111.68,217.57,111.69z"/>
	<path class="st9" d="M232.29,138.38l13.89-4.29c0.3-0.09,0.61-0.16,0.92-0.22c0.86-0.15,2.72-0.64,2-1.95
		c-0.92-1.68-0.68-4.88-3.59-2.47c-2.91,2.41-6.15,4.18-8.24,1.79s-0.12-7.68,3.47-8.17c3.59-0.49,3-0.73,5-0.74
		c0.33-0.64,0.24-3.2,1.73-5.12c0.75-0.96,0.12-1.14-0.69-1.08c-1,0.08-1.95,0.47-2.76,1.06c-0.7,0.51-1.61,1.16-2.13,1.48
		c-0.91,0.56-4.08,2.17-4.42-0.15c-0.34-2.32,1.14-9.04,8.72-7.78c1.33,0.24,2.42,1.03,3.5-0.81c1.08-1.84,3.23-5.29-0.01-4.48
		c-3.25,0.81-12.08,2.28-12.08,2.28s-4,0.57-4.31,8.33C232.99,123.83,232.29,138.38,232.29,138.38z"/>
	<path class="st9" d="M266.47,116.28c2-1.21,7.55-9.14,5.04-12.65c-2.51-3.51-14.58,1.17-14.58,1.17
		c-2.99,3.69-2.75,26.8-2.83,27.04c-0.08,0.24,2.2-0.27,4-0.81c1.44-0.44,1.24-2.4,1.24-2.4s-0.86-8.55,2.72-9.12
		c4.91-0.66,3.43,4.15,3.44,6.71s1.17,1.99,1.17,1.99s0.92-0.48,3.58-1.61C271.31,119.39,267.31,117.08,266.47,116.28z
		 M266.04,112.13c-2.49,2.57-4.82,3.53-6.4,3.94c0,0-0.97-5.59,3.45-8.65C267.51,104.37,268.53,109.56,266.04,112.13z"/>
	<path class="st9" d="M284.66,98.31c-13.05,11-12.26,24.03-12.45,26.27c-0.19,2.24,2.37,1.19,3.62,0.79c1.25-0.4,0.57-2.72,0.65-4.8
		c0.32-4.32,2.32-4.01,5.65-5.78c3.33-1.77,3.33,0.47,2.59,2.71c-0.74,2.24-2.4,5.6-1.15,5.36s1.66-0.65,2.83-1.15
		C292.59,103.05,284.66,98.31,284.66,98.31z M285.54,110.7c-2.83,1.05-8.22,3.94-7.41,1.44c0,0,0.65-4.78,5.81-8.47
		C285.35,104.95,285.7,108.7,285.54,110.7z"/>
	<path class="st9" d="M301.87,110.57c0,0-6.64,8.92-7.24,2.51c-0.49-5.22,2.2-9.92,3.21-11.47c0.25-0.38,0.53-0.73,0.85-1.05
		c0.94-0.93,2.93-2.56,2.81,0.5c-0.16,1.52,1.5,0.95,2.33-1.05c0.83-2,0.82-5.12-1.85-4.95s-6.99,2.5-8.97,8.58
		c-1.98,6.08-2.79,13.52,0.05,15.43C295.9,120.98,302.56,117.13,301.87,110.57z"/>
	<path class="st9" d="M304.38,115.92c0,0,0.72-13.28,5.11-20.33c1.16-1.92,3.25-1.29,2.58-0.01c-0.66,1.28-1.74,4.33-1.98,6.6
		c1.34-0.2,2.76-0.62,3.76-0.95c0.81-0.27,1.4-0.96,1.51-1.8c0.14-1.01,0.33-2.49,0.51-4.02c0.08-0.72,0.51-1.37,1.17-1.66
		c0.82-0.36,1.52-0.37,1.52,0.6c0,1.37-2.53,16.81-4.44,19.06c-1.16,0.56-3.75,1.71-2.63-0.38c1.12-2.09,4.85-8.94,1.27-8.31
		c-3.58,0.63-5.16,2.55-5.64,8.95C306.96,114.71,308.19,115.78,304.38,115.92z"/>
</g>
</svg>
